<?xml version="1.0" encoding="utf-8"?>
<!-- Generator: Adobe Illustrator 22.0.1, SVG Export Plug-In . SVG Version: 6.00 Build 0)  -->
<svg version="1.1" id="Layer_1" xmlns="http://www.w3.org/2000/svg" xmlns:xlink="http://www.w3.org/1999/xlink" x="0px" y="0px"
	 viewBox="0 0 205 205" style="enable-background:new 0 0 205 205;" xml:space="preserve">
<style type="text/css">
	.st0{fill:none;stroke:#000000;stroke-width:2;stroke-miterlimit:10;}
	.st1{fill:#92A3F4;}
	.st2{fill:#FFFFFF;stroke:#000000;stroke-width:2;stroke-miterlimit:10;}
	.st3{fill:#FFDE55;stroke:#000000;stroke-width:2;stroke-miterlimit:10;}
	.st4{fill:#FFFFFF;}
	.st5{fill:#FFDE55;}
</style>
<path class="st0" d="M84,180.8c0,7.4,6,13.4,13.4,13.4"/>
<line class="st0" x1="147.8" y1="89.1" x2="147.5" y2="89.1"/>
<path class="st1" d="M151.5,89.1L151.5,89.1c-0.4,0-0.9,0-1.3,0.1c-0.1,0-0.1,0-0.1,0c-1.3,0.2-2.5,0.5-3.7,1
	c-0.4,0.2-0.8,0.3-1.1,0.6c-1.9,1-3.4,2.5-4.6,4.3c-0.2,0.3-0.5,0.7-0.7,1.1c-0.3,0.5-0.5,1-0.7,1.5c-0.3,0.7-0.5,1.4-0.6,2.1
	c-0.2,0.9-0.3,1.8-0.3,2.7c0,7.4-6,13.4-13.4,13.4s-13.4-6-13.4-13.4l0,0V89.1H151.5z"/>
<path class="st0" d="M147.5,89.1L147.5,89.1c-0.4,0-0.9,0-1.3,0.1c-0.1,0-0.1,0-0.1,0c-1.3,0.2-2.5,0.5-3.7,1
	c-0.4,0.2-0.8,0.3-1.1,0.6c-1.9,1-3.4,2.5-4.6,4.3c-0.2,0.3-0.5,0.7-0.7,1.1c-0.3,0.5-0.5,1-0.7,1.5c-0.3,0.7-0.5,1.4-0.6,2.1
	c-0.2,0.9-0.3,1.8-0.3,2.7c0,7.4-6,13.4-13.4,13.4s-13.4-6-13.4-13.4l0,0V89.1H147.5z"/>
<path class="st0" d="M161.2,180.8v-77.3c0-0.3,0-0.6,0-0.9c0-7.4-6-13.4-13.4-13.4c-0.1,0-0.2,0-0.3,0"/>
<path class="st2" d="M161.2,180.8"/>
<path class="st1" d="M165.2,180.8H192c0,7.4-6,13.4-13.4,13.4S165.2,188.2,165.2,180.8"/>
<path class="st0" d="M161.2,180.8H188c0,7.4-6,13.4-13.4,13.4S161.2,188.2,161.2,180.8"/>
<line class="st0" x1="174.6" y1="194.2" x2="97.4" y2="194.2"/>
<line class="st0" x1="84" y1="180.8" x2="84" y2="115.9"/>
<line class="st0" x1="109.3" y1="138" x2="146.2" y2="138"/>
<line class="st0" x1="109.3" y1="155.8" x2="139.1" y2="155.8"/>
<line class="st0" x1="109.3" y1="173.6" x2="139.1" y2="173.6"/>
<path class="st1" d="M98,10.8H34.4c-7.4,0-13.4,6-13.4,13.4h13.4h13.4h37.1C84.9,16.9,90.7,11,98,10.8L98,10.8z"/>
<path class="st0" d="M94,10.8H30.4c-7.4,0-13.4,6-13.4,13.4h13.4h13.4h37.1C80.9,16.9,86.7,11,94,10.8L94,10.8z"/>
<path class="st0" d="M30.4,102.5c0,7.4,6,13.4,13.4,13.4"/>
<path class="st0" d="M94.3,10.8H94H30.4c-7.4,0-13.4,6-13.4,13.4h13.4h13.4h37.1c0-0.9,0.1-1.8,0.3-2.7c0.1-0.7,0.3-1.3,0.6-1.9
	c0.1-0.2,0.1-0.4,0.2-0.6c1.2-2.8,3.2-5,5.8-6.5c0.4-0.2,0.8-0.4,1.1-0.6c1.1-0.5,2.4-0.9,3.7-1h0.1c0.4-0.1,0.9-0.1,1.3-0.1
	C94.1,10.8,94.2,10.8,94.3,10.8c7.4,0,13.4,6,13.4,13.4c0,0.3,0,0.6,0,0.9v64"/>
<path class="st2" d="M107.7,102.5"/>
<polyline class="st0" points="121,115.9 84,115.9 43.8,115.9 "/>
<polyline class="st0" points="30.4,102.5 30.4,37.6 30.4,24.2 "/>
<line class="st0" x1="45.3" y1="42" x2="69" y2="42"/>
<line class="st0" x1="45.3" y1="59.8" x2="92.7" y2="59.8"/>
<line class="st0" x1="45.3" y1="77.5" x2="82.4" y2="77.5"/>
<line class="st0" x1="45.3" y1="95.3" x2="82.4" y2="95.3"/>
<path class="st3" d="M107.6,89.1"/>
<rect x="17.1" y="110.3" class="st4" width="72.3" height="68.8"/>
<rect x="21.1" y="114.3" class="st5" width="72.3" height="68.8"/>
<rect x="17.1" y="110.3" class="st0" width="72.3" height="68.8"/>
<g>
	<g>
		<path d="M31.2,165.8v-6.1h7c1.2,0,2.2-0.3,2.7-0.9c0.7-0.7,0.9-1.6,0.9-2.7v-15.9h-9.4v-6.1h15.9v22.2c0,3-0.8,5.3-2.6,7
			c-1.8,1.8-4.2,2.6-7.1,2.6h-7.4C31.2,165.9,31.2,165.8,31.2,165.8z M44.9,130.1c-1.2,0-2.2-0.3-2.8-0.9s-1.1-1.5-1.1-2.4
			s0.4-1.9,1.1-2.4c0.7-0.7,1.6-0.9,2.8-0.9s2.2,0.3,2.8,0.9c0.7,0.7,1.1,1.5,1.1,2.4s-0.4,1.9-1.1,2.4
			C47,129.8,46,130.1,44.9,130.1z"/>
		<path d="M63.7,158.3c-2,0-3.8-0.3-5.3-0.9c-1.5-0.7-2.7-1.5-3.5-2.6s-1.2-2.4-1.2-3.9h6.6c0,0.7,0.3,1.2,0.9,1.6s1.5,0.7,2.4,0.7
			h1.9c1.2,0,2.2-0.3,2.7-0.7c0.7-0.4,0.9-1.1,0.9-1.9c0-0.7-0.3-1.3-0.8-1.6c-0.5-0.4-1.3-0.7-2.6-0.8l-2.8-0.4
			c-3-0.4-5.1-1.1-6.6-2.2c-1.3-1.1-2-2.7-2-5s0.8-4.2,2.4-5.4c1.6-1.2,3.9-1.9,7-1.9h1.6c3,0,5.3,0.7,7,1.9c1.8,1.3,2.6,3,2.6,5.1
			h-6.6c0-0.5-0.3-1.1-0.8-1.5s-1.3-0.5-2.3-0.5h-1.6c-1.1,0-1.9,0.1-2.3,0.5c-0.5,0.4-0.8,0.9-0.8,1.6s0.3,1.2,0.7,1.5
			c0.4,0.4,1.2,0.5,2.2,0.8l3,0.4c3,0.4,5.3,1.1,6.7,2.3c1.5,1.1,2.2,2.8,2.2,5.1c0,2.4-0.8,4.3-2.6,5.7s-4.2,2-7.4,2L63.7,158.3
			L63.7,158.3z"/>
	</g>
</g>
</svg>
